# xmcd
#
# Track frame offsets:
#	150
#	21637
#	40649
#	57268
#	78777
#	96514
#	114257
#	128619
#	146931
#	164311
#	178598
#	195660
#	212047
#	229484
#
# Disc length: 3298 seconds
#
# Revision: 1
# Processed by: cddbd v1.5.2PL0 Copyright (c) Steve Scherf et al.
# Submitted via: audiograbber 1.83.01
#
DISCID=c30ce00e
DTITLE=Various Artist - Hitz 2007 Vol. 7
DYEAR=2007
DGENRE=Country
TTITLE0=Stay - Sugarland
TTITLE1=Don't Blink - Kenny Chesney
TTITLE2=Red Umbrella - Faith Hill
TTITLE3=Till We Ain't Strangers Anymore - Bon Jovi w/ LeAnn Rimes
TTITLE4=Stealing Cinderella - Chuck Wicks
TTITLE5=Just Got Started Lovin' You - James Otto 
TTITLE6=Takin' Off This Pain - Ashton Shepherd
TTITLE7=For These Times (Remix) - Martina McBride
TTITLE8=How Lonely Looks - Vince Gill
TTITLE9=Walk Of Life - Shooter Jennings
TTITLE10=Devil And The Cross - Halfway To Hazard
TTITLE11=Girl Next Door - Cole Deggs and The Lonesome
TTITLE12=Love Don't Live Here - Lady Antebellum
TTITLE13=Love Is A Beautiful Thing - Phil Vassar
EXTD=
EXTT0=
EXTT1=
EXTT2=
EXTT3=
EXTT4=
EXTT5=
EXTT6=
EXTT7=
EXTT8=
EXTT9=
EXTT10=
EXTT11=
EXTT12=
EXTT13=
PLAYORDER=
